<?xml version="1.0" encoding="UTF-8"?>
<svg version="1.1" xmlns="http://www.w3.org/2000/svg" width="200" height="200">
<path d="M0 0 C66 0 132 0 200 0 C200 66 200 132 200 200 C134 200 68 200 0 200 C0 134 0 68 0 0 Z " fill="#5B0101" transform="translate(0,0)"/>
<path d="M0 0 C0 7.92 0 15.84 0 24 C1.32 23.67 2.64 23.34 4 23 C12.00425807 22.15349881 17.70962036 22.46012924 24.29296875 27.296875 C28.88126128 31.87466801 28.93282264 37.68288682 29.11352539 43.91577148 C29.11336973 45.31755554 29.10788099 46.71934697 29.09765625 48.12109375 C29.0962413 48.86585464 29.09482635 49.61061554 29.09336853 50.37794495 C29.08781989 52.73117273 29.07527733 55.0843015 29.0625 57.4375 C29.05747835 59.04361841 29.05291661 60.64973832 29.04882812 62.25585938 C29.03786735 66.17061043 29.02063884 70.08528849 29 74 C24.38 74 19.76 74 15 74 C14.93941406 71.74800781 14.87882812 69.49601562 14.81640625 67.17578125 C14.75452459 64.98475088 14.69117524 62.7937675 14.62768555 60.6027832 C14.58448452 59.08492245 14.54279952 57.56701774 14.50268555 56.04907227 C14.44462188 53.86200741 14.38103344 51.67516082 14.31640625 49.48828125 C14.27974854 48.17384033 14.24309082 46.85939941 14.20532227 45.50512695 C14.03138688 42.5358162 13.82496267 39.85492327 13 37 C9.07854902 35.03927451 4.36631 35.39693727 0 35 C0 47.87 0 60.74 0 74 C-4.62 74 -9.24 74 -14 74 C-14 49.91 -14 25.82 -14 1 C-9 0 -9 0 0 0 Z " fill="#F9F6F6" transform="translate(42,63)"/>
<path d="M0 0 C1.0219043 -0.00483398 1.0219043 -0.00483398 2.06445312 -0.00976562 C6.37991422 0.03583483 9.92664058 0.74194506 13.9375 2.3125 C13.6075 6.2725 13.2775 10.2325 12.9375 14.3125 C11.98875 14.1475 11.04 13.9825 10.0625 13.8125 C4.41011613 13.00501659 -1.60696068 12.49398689 -7.0625 14.3125 C-7.79573796 16.32758358 -7.79573796 16.32758358 -8.0625 18.3125 C-6.41701172 18.69341797 -6.41701172 18.69341797 -4.73828125 19.08203125 C-3.28374786 19.42924245 -1.82932658 19.77692358 -0.375 20.125 C0.34623047 20.29064453 1.06746094 20.45628906 1.81054688 20.62695312 C7.3615924 21.97035684 12.17230008 23.7942601 15.9375 28.3125 C17.65412454 33.46237361 18.02611001 39.27438942 16.171875 44.44921875 C13.54450666 48.71406665 9.96813727 51.01423054 5.296875 52.65625 C0.72756464 53.54885946 -3.727151 53.70689073 -8.375 53.75 C-9.68319702 53.7653479 -9.68319702 53.7653479 -11.01782227 53.78100586 C-15.85743166 53.71430088 -19.0973479 53.3946904 -23.0625 50.3125 C-22.92081863 48.87458484 -22.77398957 47.4371763 -22.625 46 C-22.54378906 45.19949219 -22.46257812 44.39898437 -22.37890625 43.57421875 C-22.0625 41.3125 -22.0625 41.3125 -21.0625 38.3125 C-20.09183594 38.63992187 -19.12117187 38.96734375 -18.12109375 39.3046875 C-13.7614074 40.55031217 -9.62874028 40.5378404 -5.125 40.4375 C-3.95614258 40.42396484 -3.95614258 40.42396484 -2.76367188 40.41015625 C-0.86314553 40.38683691 1.03722008 40.35097586 2.9375 40.3125 C2.74226922 38.34095928 2.74226922 38.34095928 1.9375 36.3125 C0.19596394 35.31052462 0.19596394 35.31052462 -2 34.8125 C-2.80824219 34.57015625 -3.61648437 34.3278125 -4.44921875 34.078125 C-5.74279297 33.69914062 -5.74279297 33.69914062 -7.0625 33.3125 C-12.87527636 31.49225098 -18.02235771 29.87933924 -21.2734375 24.4296875 C-22.92403967 20.00084407 -23.09828237 15.91084594 -22.0625 11.3125 C-17.24655586 2.71159096 -9.5977166 -0.22829963 0 0 Z " fill="#F6F2F2" transform="translate(158.0625,85.6875)"/>
<path d="M0 0 C0.79019531 0.00902344 1.58039063 0.01804688 2.39453125 0.02734375 C3.28205078 0.04474609 3.28205078 0.04474609 4.1875 0.0625 C4.19336624 0.78024597 4.19923248 1.49799194 4.20527649 2.23748779 C4.26321147 9.0058731 4.33529276 15.77397631 4.42321491 22.54203415 C4.46791795 26.02148873 4.50717378 29.50082625 4.53393555 32.98046875 C4.56495139 36.98207174 4.61973997 40.98304368 4.67578125 44.984375 C4.68217117 46.23240906 4.6885611 47.48044312 4.69514465 48.76629639 C4.71493881 49.92719788 4.73473297 51.08809937 4.75512695 52.28417969 C4.76623001 53.30566101 4.77733307 54.32714233 4.78877258 55.37957764 C5.25164286 58.49409889 5.95553093 59.85854 8.1875 62.0625 C9.5075 62.3925 10.8275 62.7225 12.1875 63.0625 C11.8575 67.0225 11.5275 70.9825 11.1875 75.0625 C1.2535793 75.5470815 1.2535793 75.5470815 -3.25 73.5 C-8.52540132 68.48193533 -10.04825814 64.68876421 -10.26660156 57.48461914 C-10.26597102 54.85333683 -10.24441469 52.22804515 -10.203125 49.59765625 C-10.19565419 48.19519359 -10.18996523 46.79272041 -10.18597412 45.39024353 C-10.17078349 41.71901051 -10.13156039 38.04842182 -10.0871582 34.37744141 C-10.04606217 30.62346103 -10.02793271 26.8693754 -10.0078125 23.11523438 C-9.96505803 15.76403083 -9.89688867 8.41335608 -9.8125 1.0625 C-6.4745111 0.30952559 -3.41964911 -0.05103954 0 0 Z " fill="#F8F5F5" transform="translate(91.8125,62.9375)"/>
<path d="M0 0 C4.62 0 9.24 0 14 0 C14.07442033 7.52561302 14.12873064 15.05100953 14.16479492 22.5769043 C14.1798371 25.13455947 14.20027589 27.69218904 14.22631836 30.24975586 C14.26290204 33.93609963 14.27977268 37.62210091 14.29296875 41.30859375 C14.30845261 42.44332626 14.32393646 43.57805878 14.33988953 44.74717712 C14.34147139 52.28983922 14.1291063 59.7885488 8.625 65.4375 C3.48149036 68.49911288 -0.29414893 69.23749254 -6.3125 69.125 C-7.56675781 69.10695313 -8.82101563 69.08890625 -10.11328125 69.0703125 C-11.06589844 69.04710937 -12.01851563 69.02390625 -13 69 C-14.45606519 64.47907032 -13.27032841 61.48351204 -12 57 C-11.37351562 56.95101562 -10.74703125 56.90203125 -10.1015625 56.8515625 C-9.28429687 56.77679688 -8.46703125 56.70203125 -7.625 56.625 C-6.81289062 56.55539063 -6.00078125 56.48578125 -5.1640625 56.4140625 C-2.79665809 56.17107412 -2.79665809 56.17107412 -1 54 C-0.66868587 51.61519954 -0.66868587 51.61519954 -0.68115234 48.81591797 C-0.65134781 47.19446365 -0.65134781 47.19446365 -0.62094116 45.54025269 C-0.60938995 44.36939117 -0.59783875 43.19852966 -0.5859375 41.9921875 C-0.56657135 40.79643097 -0.5472052 39.60067444 -0.5272522 38.36868286 C-0.46732056 34.53752852 -0.4210164 30.70634435 -0.375 26.875 C-0.33683276 24.28253875 -0.29778179 21.69009034 -0.2578125 19.09765625 C-0.16160775 12.73187481 -0.07762686 6.36603401 0 0 Z " fill="#F8F5F5" transform="translate(113,87)"/>
<path d="M0 0 C2.875 1.4375 2.875 1.4375 5 4 C5.90705593 8.29865635 5.72920717 11.75427109 3.5 15.5625 C-0.03886571 17.59734778 -3.01905863 17.92181634 -7 17 C-9.65041483 14.87966814 -10.7168575 13.36178059 -11.41015625 10.02734375 C-11.68407125 6.26979185 -11.319489 4.37586941 -8.875 1.5 C-5.48749667 -0.26739304 -3.7664742 -0.6277457 0 0 Z " fill="#F6F3F3" transform="translate(123,63)"/>
<path d="M0 0 C-0.66 1.32 -1.32 2.64 -2 4 C-2.66 4 -3.32 4 -4 4 C-4 6.31 -4 8.62 -4 11 C-4.33 11 -4.66 11 -5 11 C-5.36717663 3.5340751 -5.36717663 3.5340751 -3.625 1 C-2 0 -2 0 0 0 Z " fill="#D2B9B9" transform="translate(117,64)"/>
</svg>
